<?xml version="1.0" standalone="no"?><!DOCTYPE svg PUBLIC "-//W3C//DTD SVG 1.1//EN" "http://www.w3.org/Graphics/SVG/1.1/DTD/svg11.dtd"><svg class="icon" height="512" viewBox="0 0 1024 1024" version="1.1" xmlns="http://www.w3.org/2000/svg"><path d="M861.525 45.947h-699.051c0 0 0 0 0 0-64.346 0-116.509 52.162-116.509 116.509 0 0.006 0 0.014 0 0.020v699.030c0 0.005 0 0.013 0 0.019 0 64.346 52.162 116.509 116.509 116.509 0 0 0 0 0 0h699.051c64.352-0.012 116.516-52.176 116.528-116.527v-699.033c-0.012-64.352-52.176-116.516-116.527-116.528zM273.916 391.045h76.508c7.941 0 14.331 7.049 14.331 15.767s-6.388 15.787-14.331 15.787h-76.508c-7.922 0-14.35-7.068-14.35-15.787s6.428-15.767 14.35-15.767zM273.916 496.233h76.508c7.941 0 14.331 7.068 14.331 15.787s-6.388 15.787-14.331 15.787h-76.508c-7.922-0.019-14.35-7.087-14.35-15.806s6.428-15.767 14.35-15.767zM259.565 617.187c0-8.719 6.428-15.787 14.35-15.787h76.508c7.941 0 14.331 7.068 14.331 15.787 0 8.681-6.388 15.787-14.331 15.787h-76.508c-7.922-0.019-14.35-7.106-14.35-15.787zM764.416 722.336c-0.078 23.209-18.87 42.002-42.071 42.079h-378.621c-23.213-0.078-42.011-18.868-42.099-42.070v-42.068h42.099v42.059h378.613v-420.711h-378.613v42.079h-42.099v-42.079c0-23.126 18.951-42.079 42.099-42.079h378.613c23.126 0 42.079 18.951 42.079 42.079v420.711zM444.076 456.774c-0.013-0.563-0.019-1.226-0.019-1.891 0-50.834 41.209-92.042 92.042-92.042 50.834 0 92.042 41.209 92.042 92.042 0 0.665-0.006 1.328-0.021 1.989 0.001 36.447-21.455 67.748-52.368 82.622 50.214 16.641 86.585 64.002 86.585 119.751h-31.554c-0.055-52.262-42.401-94.617-94.656-94.683-52.268 0.066-94.614 42.42-94.67 94.676l-31.573 0.005c0-55.749 36.37-103.11 86.585-119.751-30.913-14.875-52.39-46.156-52.39-82.721z" fill="#7DA9E5" /><path d="M596.585 456.774c-0.033-33.386-27.084-60.444-60.464-60.487-33.393 0.045-60.448 27.099-60.491 60.483 0.066 33.38 27.109 60.417 60.482 60.471 33.382-0.045 60.429-27.090 60.473-60.464z" fill="#7DA9E5" /></svg>